<svg width="16" height="16" viewBox="0 0 16 16" fill="none" xmlns="http://www.w3.org/2000/svg">
<g opacity="0.9" clip-path="url(#clip0_51_310)">
<mask id="mask0_51_310" style="mask-type:luminance" maskUnits="userSpaceOnUse" x="0" y="0" width="16" height="16">
<path d="M2.81482 15.0834L2.81482 5.91669H0.592597L0.592597 15.0834H2.81482Z" fill="#555555" stroke="white" stroke-linejoin="round"/>
<path d="M2.81482 5.91669C5.45297 3.20044 6.98148 1.64169 7.40148 1.24085C8.03111 0.639605 8.74222 0.892105 8.74222 2.3971C8.74222 3.9021 6.78482 4.77002 6.78482 5.91669C6.78334 5.92377 9.28667 5.92419 14.2948 5.91794C14.4408 5.91772 14.5854 5.94986 14.7203 6.01253C14.8552 6.0752 14.9779 6.16716 15.0812 6.28317C15.1845 6.39918 15.2665 6.53695 15.3225 6.68862C15.3785 6.84029 15.4073 7.00288 15.4074 7.1671V7.16835C15.4075 7.33276 15.3787 7.49557 15.3228 7.64747C15.2669 7.79938 15.185 7.93741 15.0817 8.05369C14.9784 8.16996 14.8557 8.26219 14.7207 8.32512C14.5857 8.38805 14.441 8.42044 14.2948 8.42044H11.3282C10.8807 11.7421 10.6337 13.5484 10.5874 13.8384C10.5178 14.2738 10.1482 15.0834 9.08593 15.0834H2.81482V5.91669Z" stroke="white" stroke-linejoin="round"/>
</mask>
<g mask="url(#mask0_51_310)">
<path d="M16.8889 -2V18H-0.888861V-2L16.8889 -2Z" fill="#0F5298"/>
</g>
</g>
<defs>
<clipPath id="clip0_51_310">
<rect width="16" height="16" fill="white" transform="matrix(0 1 -1 0 16 0)"/>
</clipPath>
</defs>
</svg>
